<mxfile host="app.diagrams.net" agent="Mozilla/5.0 (Macintosh; Intel Mac OS X 10_15_7) AppleWebKit/605.1.15 (KHTML, like Gecko) Version/17.6 Safari/605.1.15" version="24.7.17">
  <diagram id="C5RBs43oDa-KdzZeNtuy" name="Page-1">
    <mxGraphModel dx="3545" dy="908" grid="1" gridSize="10" guides="1" tooltips="1" connect="1" arrows="1" fold="1" page="1" pageScale="1" pageWidth="1169" pageHeight="827" math="0" shadow="0">
      <root>
        <mxCell id="WIyWlLk6GJQsqaUBKTNV-0" />
        <mxCell id="WIyWlLk6GJQsqaUBKTNV-1" parent="WIyWlLk6GJQsqaUBKTNV-0" />
        <mxCell id="W6e_Ra112G-wACPqTDZ2-7" value="Region_A" style="swimlane;whiteSpace=wrap;html=1;" vertex="1" parent="WIyWlLk6GJQsqaUBKTNV-1">
          <mxGeometry x="-1220" y="13" width="1190" height="800" as="geometry" />
        </mxCell>
        <mxCell id="W6e_Ra112G-wACPqTDZ2-8" value="Server_A" style="swimlane;whiteSpace=wrap;html=1;" vertex="1" parent="W6e_Ra112G-wACPqTDZ2-7">
          <mxGeometry x="30" y="56" width="570" height="514" as="geometry" />
        </mxCell>
        <mxCell id="W6e_Ra112G-wACPqTDZ2-10" value="watchdog" style="rounded=1;whiteSpace=wrap;html=1;" vertex="1" parent="W6e_Ra112G-wACPqTDZ2-8">
          <mxGeometry x="210" y="47" width="90" height="51" as="geometry" />
        </mxCell>
        <mxCell id="W6e_Ra112G-wACPqTDZ2-11" value="syslog" style="rounded=1;whiteSpace=wrap;html=1;" vertex="1" parent="W6e_Ra112G-wACPqTDZ2-8">
          <mxGeometry x="20" y="195" width="90" height="51" as="geometry" />
        </mxCell>
        <mxCell id="W6e_Ra112G-wACPqTDZ2-15" value="configuration" style="rounded=1;whiteSpace=wrap;html=1;" vertex="1" parent="W6e_Ra112G-wACPqTDZ2-8">
          <mxGeometry x="20" y="47" width="90" height="51" as="geometry" />
        </mxCell>
        <mxCell id="W6e_Ra112G-wACPqTDZ2-16" value="manager-agent" style="rounded=1;whiteSpace=wrap;html=1;" vertex="1" parent="W6e_Ra112G-wACPqTDZ2-8">
          <mxGeometry x="210" y="195" width="90" height="51" as="geometry" />
        </mxCell>
        <mxCell id="W6e_Ra112G-wACPqTDZ2-17" value="aisserver" style="rounded=1;whiteSpace=wrap;html=1;" vertex="1" parent="W6e_Ra112G-wACPqTDZ2-8">
          <mxGeometry x="20" y="359" width="90" height="51" as="geometry" />
        </mxCell>
        <mxCell id="W6e_Ra112G-wACPqTDZ2-18" value="gateway" style="rounded=1;whiteSpace=wrap;html=1;" vertex="1" parent="W6e_Ra112G-wACPqTDZ2-8">
          <mxGeometry x="404" y="359" width="90" height="51" as="geometry" />
        </mxCell>
        <mxCell id="W6e_Ra112G-wACPqTDZ2-19" value="datalog" style="rounded=1;whiteSpace=wrap;html=1;" vertex="1" parent="W6e_Ra112G-wACPqTDZ2-8">
          <mxGeometry x="404" y="195" width="90" height="51" as="geometry" />
        </mxCell>
        <mxCell id="W6e_Ra112G-wACPqTDZ2-20" value="manager-server" style="rounded=1;whiteSpace=wrap;html=1;" vertex="1" parent="W6e_Ra112G-wACPqTDZ2-8">
          <mxGeometry x="404" y="47" width="90" height="51" as="geometry" />
        </mxCell>
        <mxCell id="W6e_Ra112G-wACPqTDZ2-39" value="" style="endArrow=classic;startArrow=classic;html=1;rounded=0;" edge="1" parent="W6e_Ra112G-wACPqTDZ2-8" source="W6e_Ra112G-wACPqTDZ2-18" target="W6e_Ra112G-wACPqTDZ2-17">
          <mxGeometry width="50" height="50" relative="1" as="geometry">
            <mxPoint x="429" y="347.5" as="sourcePoint" />
            <mxPoint x="479" y="297.5" as="targetPoint" />
            <Array as="points" />
          </mxGeometry>
        </mxCell>
        <mxCell id="W6e_Ra112G-wACPqTDZ2-52" value="Socket" style="edgeLabel;html=1;align=center;verticalAlign=middle;resizable=0;points=[];" vertex="1" connectable="0" parent="W6e_Ra112G-wACPqTDZ2-39">
          <mxGeometry x="0.0262" y="2" relative="1" as="geometry">
            <mxPoint as="offset" />
          </mxGeometry>
        </mxCell>
        <mxCell id="W6e_Ra112G-wACPqTDZ2-53" value="Server" style="edgeLabel;html=1;align=center;verticalAlign=middle;resizable=0;points=[];" vertex="1" connectable="0" parent="W6e_Ra112G-wACPqTDZ2-39">
          <mxGeometry x="0.7801" y="2" relative="1" as="geometry">
            <mxPoint x="10" as="offset" />
          </mxGeometry>
        </mxCell>
        <mxCell id="W6e_Ra112G-wACPqTDZ2-40" value="Socket" style="endArrow=classic;startArrow=classic;html=1;rounded=0;exitX=0.5;exitY=0;exitDx=0;exitDy=0;entryX=0.5;entryY=1;entryDx=0;entryDy=0;" edge="1" parent="W6e_Ra112G-wACPqTDZ2-8" source="W6e_Ra112G-wACPqTDZ2-18" target="W6e_Ra112G-wACPqTDZ2-19">
          <mxGeometry width="50" height="50" relative="1" as="geometry">
            <mxPoint x="444" y="330" as="sourcePoint" />
            <mxPoint x="494" y="280" as="targetPoint" />
          </mxGeometry>
        </mxCell>
        <mxCell id="W6e_Ra112G-wACPqTDZ2-58" value="Server" style="edgeLabel;html=1;align=center;verticalAlign=middle;resizable=0;points=[];" vertex="1" connectable="0" parent="W6e_Ra112G-wACPqTDZ2-40">
          <mxGeometry x="-0.5686" relative="1" as="geometry">
            <mxPoint as="offset" />
          </mxGeometry>
        </mxCell>
        <mxCell id="W6e_Ra112G-wACPqTDZ2-41" value="pipe" style="endArrow=classic;startArrow=classic;html=1;rounded=0;exitX=1;exitY=0.5;exitDx=0;exitDy=0;entryX=0;entryY=0.5;entryDx=0;entryDy=0;" edge="1" parent="W6e_Ra112G-wACPqTDZ2-8" source="W6e_Ra112G-wACPqTDZ2-16" target="W6e_Ra112G-wACPqTDZ2-19">
          <mxGeometry width="50" height="50" relative="1" as="geometry">
            <mxPoint x="430" y="275" as="sourcePoint" />
            <mxPoint x="480" y="225" as="targetPoint" />
          </mxGeometry>
        </mxCell>
        <mxCell id="W6e_Ra112G-wACPqTDZ2-42" value="pipe" style="endArrow=classic;startArrow=classic;html=1;rounded=0;" edge="1" parent="W6e_Ra112G-wACPqTDZ2-8" source="W6e_Ra112G-wACPqTDZ2-17" target="W6e_Ra112G-wACPqTDZ2-16">
          <mxGeometry width="50" height="50" relative="1" as="geometry">
            <mxPoint x="151" y="354" as="sourcePoint" />
            <mxPoint x="201" y="292.25" as="targetPoint" />
          </mxGeometry>
        </mxCell>
        <mxCell id="W6e_Ra112G-wACPqTDZ2-44" value="pipe" style="endArrow=classic;startArrow=classic;html=1;rounded=0;exitX=0;exitY=0;exitDx=0;exitDy=0;" edge="1" parent="W6e_Ra112G-wACPqTDZ2-8" source="W6e_Ra112G-wACPqTDZ2-18" target="W6e_Ra112G-wACPqTDZ2-16">
          <mxGeometry width="50" height="50" relative="1" as="geometry">
            <mxPoint x="420" y="330" as="sourcePoint" />
            <mxPoint x="270" y="300" as="targetPoint" />
          </mxGeometry>
        </mxCell>
        <mxCell id="W6e_Ra112G-wACPqTDZ2-54" value="" style="endArrow=classic;startArrow=classic;html=1;rounded=0;entryX=0;entryY=1;entryDx=0;entryDy=0;exitX=1;exitY=0;exitDx=0;exitDy=0;" edge="1" parent="W6e_Ra112G-wACPqTDZ2-8" source="W6e_Ra112G-wACPqTDZ2-16" target="W6e_Ra112G-wACPqTDZ2-20">
          <mxGeometry width="50" height="50" relative="1" as="geometry">
            <mxPoint x="420" y="281" as="sourcePoint" />
            <mxPoint x="470" y="231" as="targetPoint" />
          </mxGeometry>
        </mxCell>
        <mxCell id="W6e_Ra112G-wACPqTDZ2-55" value="Socket" style="edgeLabel;html=1;align=center;verticalAlign=middle;resizable=0;points=[];" vertex="1" connectable="0" parent="W6e_Ra112G-wACPqTDZ2-54">
          <mxGeometry x="-0.0355" y="-7" relative="1" as="geometry">
            <mxPoint x="1" as="offset" />
          </mxGeometry>
        </mxCell>
        <mxCell id="W6e_Ra112G-wACPqTDZ2-57" value="Server" style="edgeLabel;html=1;align=center;verticalAlign=middle;resizable=0;points=[];" vertex="1" connectable="0" parent="W6e_Ra112G-wACPqTDZ2-54">
          <mxGeometry x="-0.7031" y="1" relative="1" as="geometry">
            <mxPoint x="15" as="offset" />
          </mxGeometry>
        </mxCell>
        <mxCell id="W6e_Ra112G-wACPqTDZ2-30" value="bs_a" style="rounded=1;whiteSpace=wrap;html=1;" vertex="1" parent="W6e_Ra112G-wACPqTDZ2-7">
          <mxGeometry x="51" y="624" width="80" height="40" as="geometry" />
        </mxCell>
        <mxCell id="W6e_Ra112G-wACPqTDZ2-31" value="bs_b" style="rounded=1;whiteSpace=wrap;html=1;" vertex="1" parent="W6e_Ra112G-wACPqTDZ2-7">
          <mxGeometry x="146" y="624" width="80" height="40" as="geometry" />
        </mxCell>
        <mxCell id="W6e_Ra112G-wACPqTDZ2-32" value="bs_c" style="rounded=1;whiteSpace=wrap;html=1;" vertex="1" parent="W6e_Ra112G-wACPqTDZ2-7">
          <mxGeometry x="241" y="624" width="80" height="40" as="geometry" />
        </mxCell>
        <mxCell id="W6e_Ra112G-wACPqTDZ2-33" value="" style="endArrow=classic;startArrow=classic;html=1;rounded=0;exitX=0.5;exitY=0;exitDx=0;exitDy=0;" edge="1" parent="W6e_Ra112G-wACPqTDZ2-7" source="W6e_Ra112G-wACPqTDZ2-30" target="W6e_Ra112G-wACPqTDZ2-17">
          <mxGeometry width="50" height="50" relative="1" as="geometry">
            <mxPoint x="80" y="520" as="sourcePoint" />
            <mxPoint x="130" y="470" as="targetPoint" />
          </mxGeometry>
        </mxCell>
        <mxCell id="W6e_Ra112G-wACPqTDZ2-46" value="Socket" style="edgeLabel;html=1;align=center;verticalAlign=middle;resizable=0;points=[];" vertex="1" connectable="0" parent="W6e_Ra112G-wACPqTDZ2-33">
          <mxGeometry x="-0.0183" y="-1" relative="1" as="geometry">
            <mxPoint y="-4" as="offset" />
          </mxGeometry>
        </mxCell>
        <mxCell id="W6e_Ra112G-wACPqTDZ2-49" value="Server" style="edgeLabel;html=1;align=center;verticalAlign=middle;resizable=0;points=[];" vertex="1" connectable="0" parent="W6e_Ra112G-wACPqTDZ2-33">
          <mxGeometry x="-0.7691" y="-2" relative="1" as="geometry">
            <mxPoint y="-10" as="offset" />
          </mxGeometry>
        </mxCell>
        <mxCell id="W6e_Ra112G-wACPqTDZ2-34" value="" style="endArrow=classic;startArrow=classic;html=1;rounded=0;exitX=0.5;exitY=0;exitDx=0;exitDy=0;" edge="1" parent="W6e_Ra112G-wACPqTDZ2-7" source="W6e_Ra112G-wACPqTDZ2-31" target="W6e_Ra112G-wACPqTDZ2-17">
          <mxGeometry width="50" height="50" relative="1" as="geometry">
            <mxPoint x="90" y="600" as="sourcePoint" />
            <mxPoint x="160" y="450" as="targetPoint" />
          </mxGeometry>
        </mxCell>
        <mxCell id="W6e_Ra112G-wACPqTDZ2-47" value="Socket" style="edgeLabel;html=1;align=center;verticalAlign=middle;resizable=0;points=[];" vertex="1" connectable="0" parent="W6e_Ra112G-wACPqTDZ2-34">
          <mxGeometry x="-0.0437" y="-1" relative="1" as="geometry">
            <mxPoint y="-6" as="offset" />
          </mxGeometry>
        </mxCell>
        <mxCell id="W6e_Ra112G-wACPqTDZ2-50" value="Server" style="edgeLabel;html=1;align=center;verticalAlign=middle;resizable=0;points=[];" vertex="1" connectable="0" parent="W6e_Ra112G-wACPqTDZ2-34">
          <mxGeometry x="-0.6084" y="1" relative="1" as="geometry">
            <mxPoint y="4" as="offset" />
          </mxGeometry>
        </mxCell>
        <mxCell id="W6e_Ra112G-wACPqTDZ2-36" value="" style="endArrow=classic;startArrow=classic;html=1;rounded=0;" edge="1" parent="W6e_Ra112G-wACPqTDZ2-7" source="W6e_Ra112G-wACPqTDZ2-32" target="W6e_Ra112G-wACPqTDZ2-17">
          <mxGeometry width="50" height="50" relative="1" as="geometry">
            <mxPoint x="100" y="610" as="sourcePoint" />
            <mxPoint x="155" y="464" as="targetPoint" />
          </mxGeometry>
        </mxCell>
        <mxCell id="W6e_Ra112G-wACPqTDZ2-48" value="Socket" style="edgeLabel;html=1;align=center;verticalAlign=middle;resizable=0;points=[];" vertex="1" connectable="0" parent="W6e_Ra112G-wACPqTDZ2-36">
          <mxGeometry x="-0.0708" y="1" relative="1" as="geometry">
            <mxPoint y="-9" as="offset" />
          </mxGeometry>
        </mxCell>
        <mxCell id="W6e_Ra112G-wACPqTDZ2-51" value="Server" style="edgeLabel;html=1;align=center;verticalAlign=middle;resizable=0;points=[];" vertex="1" connectable="0" parent="W6e_Ra112G-wACPqTDZ2-36">
          <mxGeometry x="-0.6524" y="1" relative="1" as="geometry">
            <mxPoint as="offset" />
          </mxGeometry>
        </mxCell>
        <mxCell id="W6e_Ra112G-wACPqTDZ2-59" value="Server_B" style="swimlane;whiteSpace=wrap;html=1;" vertex="1" parent="W6e_Ra112G-wACPqTDZ2-7">
          <mxGeometry x="635" y="56" width="530" height="514" as="geometry" />
        </mxCell>
        <mxCell id="W6e_Ra112G-wACPqTDZ2-60" value="watchdog" style="rounded=1;whiteSpace=wrap;html=1;" vertex="1" parent="W6e_Ra112G-wACPqTDZ2-59">
          <mxGeometry x="210" y="47" width="90" height="51" as="geometry" />
        </mxCell>
        <mxCell id="W6e_Ra112G-wACPqTDZ2-61" value="syslog" style="rounded=1;whiteSpace=wrap;html=1;" vertex="1" parent="W6e_Ra112G-wACPqTDZ2-59">
          <mxGeometry x="404" y="196" width="90" height="51" as="geometry" />
        </mxCell>
        <mxCell id="W6e_Ra112G-wACPqTDZ2-62" value="configuration" style="rounded=1;whiteSpace=wrap;html=1;" vertex="1" parent="W6e_Ra112G-wACPqTDZ2-59">
          <mxGeometry x="395" y="47" width="90" height="51" as="geometry" />
        </mxCell>
        <mxCell id="W6e_Ra112G-wACPqTDZ2-63" value="manager-agent" style="rounded=1;whiteSpace=wrap;html=1;" vertex="1" parent="W6e_Ra112G-wACPqTDZ2-59">
          <mxGeometry x="210" y="196" width="90" height="51" as="geometry" />
        </mxCell>
        <mxCell id="W6e_Ra112G-wACPqTDZ2-64" value="aisserver" style="rounded=1;whiteSpace=wrap;html=1;" vertex="1" parent="W6e_Ra112G-wACPqTDZ2-59">
          <mxGeometry x="410" y="357" width="90" height="51" as="geometry" />
        </mxCell>
        <mxCell id="W6e_Ra112G-wACPqTDZ2-65" value="gateway" style="rounded=1;whiteSpace=wrap;html=1;" vertex="1" parent="W6e_Ra112G-wACPqTDZ2-59">
          <mxGeometry x="21" y="358" width="90" height="51" as="geometry" />
        </mxCell>
        <mxCell id="W6e_Ra112G-wACPqTDZ2-66" value="datalog" style="rounded=1;whiteSpace=wrap;html=1;arcSize=27;" vertex="1" parent="W6e_Ra112G-wACPqTDZ2-59">
          <mxGeometry x="20" y="196" width="90" height="51" as="geometry" />
        </mxCell>
        <mxCell id="W6e_Ra112G-wACPqTDZ2-68" value="" style="endArrow=classic;startArrow=classic;html=1;rounded=0;" edge="1" parent="W6e_Ra112G-wACPqTDZ2-59" source="W6e_Ra112G-wACPqTDZ2-65" target="W6e_Ra112G-wACPqTDZ2-64">
          <mxGeometry width="50" height="50" relative="1" as="geometry">
            <mxPoint x="429" y="347.5" as="sourcePoint" />
            <mxPoint x="479" y="297.5" as="targetPoint" />
            <Array as="points" />
          </mxGeometry>
        </mxCell>
        <mxCell id="W6e_Ra112G-wACPqTDZ2-69" value="Socket" style="edgeLabel;html=1;align=center;verticalAlign=middle;resizable=0;points=[];" vertex="1" connectable="0" parent="W6e_Ra112G-wACPqTDZ2-68">
          <mxGeometry x="0.0262" y="2" relative="1" as="geometry">
            <mxPoint as="offset" />
          </mxGeometry>
        </mxCell>
        <mxCell id="W6e_Ra112G-wACPqTDZ2-70" value="Server" style="edgeLabel;html=1;align=center;verticalAlign=middle;resizable=0;points=[];" vertex="1" connectable="0" parent="W6e_Ra112G-wACPqTDZ2-68">
          <mxGeometry x="0.7801" y="2" relative="1" as="geometry">
            <mxPoint x="10" as="offset" />
          </mxGeometry>
        </mxCell>
        <mxCell id="W6e_Ra112G-wACPqTDZ2-71" value="Socket" style="endArrow=classic;startArrow=classic;html=1;rounded=0;exitX=0.5;exitY=0;exitDx=0;exitDy=0;entryX=0.5;entryY=1;entryDx=0;entryDy=0;" edge="1" parent="W6e_Ra112G-wACPqTDZ2-59" source="W6e_Ra112G-wACPqTDZ2-65" target="W6e_Ra112G-wACPqTDZ2-66">
          <mxGeometry width="50" height="50" relative="1" as="geometry">
            <mxPoint x="444" y="330" as="sourcePoint" />
            <mxPoint x="494" y="280" as="targetPoint" />
          </mxGeometry>
        </mxCell>
        <mxCell id="W6e_Ra112G-wACPqTDZ2-72" value="Server" style="edgeLabel;html=1;align=center;verticalAlign=middle;resizable=0;points=[];" vertex="1" connectable="0" parent="W6e_Ra112G-wACPqTDZ2-71">
          <mxGeometry x="-0.5686" relative="1" as="geometry">
            <mxPoint as="offset" />
          </mxGeometry>
        </mxCell>
        <mxCell id="W6e_Ra112G-wACPqTDZ2-73" value="pipe" style="endArrow=classic;startArrow=classic;html=1;rounded=0;exitX=0;exitY=0.5;exitDx=0;exitDy=0;entryX=1;entryY=0.5;entryDx=0;entryDy=0;" edge="1" parent="W6e_Ra112G-wACPqTDZ2-59" source="W6e_Ra112G-wACPqTDZ2-63" target="W6e_Ra112G-wACPqTDZ2-66">
          <mxGeometry width="50" height="50" relative="1" as="geometry">
            <mxPoint x="430" y="267" as="sourcePoint" />
            <mxPoint x="480" y="217" as="targetPoint" />
          </mxGeometry>
        </mxCell>
        <mxCell id="W6e_Ra112G-wACPqTDZ2-74" value="pipe" style="endArrow=classic;startArrow=classic;html=1;rounded=0;" edge="1" parent="W6e_Ra112G-wACPqTDZ2-59" source="W6e_Ra112G-wACPqTDZ2-64" target="W6e_Ra112G-wACPqTDZ2-63">
          <mxGeometry width="50" height="50" relative="1" as="geometry">
            <mxPoint x="151" y="354" as="sourcePoint" />
            <mxPoint x="201" y="292.25" as="targetPoint" />
          </mxGeometry>
        </mxCell>
        <mxCell id="W6e_Ra112G-wACPqTDZ2-75" value="pipe" style="endArrow=classic;startArrow=classic;html=1;rounded=0;exitX=1;exitY=0;exitDx=0;exitDy=0;" edge="1" parent="W6e_Ra112G-wACPqTDZ2-59" source="W6e_Ra112G-wACPqTDZ2-65" target="W6e_Ra112G-wACPqTDZ2-63">
          <mxGeometry width="50" height="50" relative="1" as="geometry">
            <mxPoint x="420" y="330" as="sourcePoint" />
            <mxPoint x="270" y="300" as="targetPoint" />
          </mxGeometry>
        </mxCell>
        <mxCell id="W6e_Ra112G-wACPqTDZ2-79" value="bs_d" style="rounded=1;whiteSpace=wrap;html=1;" vertex="1" parent="W6e_Ra112G-wACPqTDZ2-7">
          <mxGeometry x="829" y="627" width="80" height="40" as="geometry" />
        </mxCell>
        <mxCell id="W6e_Ra112G-wACPqTDZ2-80" value="bs_e" style="rounded=1;whiteSpace=wrap;html=1;" vertex="1" parent="W6e_Ra112G-wACPqTDZ2-7">
          <mxGeometry x="939" y="627" width="80" height="40" as="geometry" />
        </mxCell>
        <mxCell id="W6e_Ra112G-wACPqTDZ2-81" value="bs_f" style="rounded=1;whiteSpace=wrap;html=1;" vertex="1" parent="W6e_Ra112G-wACPqTDZ2-7">
          <mxGeometry x="1049" y="627" width="80" height="40" as="geometry" />
        </mxCell>
        <mxCell id="W6e_Ra112G-wACPqTDZ2-82" value="" style="endArrow=classic;startArrow=classic;html=1;rounded=0;exitX=0.5;exitY=0;exitDx=0;exitDy=0;" edge="1" parent="W6e_Ra112G-wACPqTDZ2-7" source="W6e_Ra112G-wACPqTDZ2-79" target="W6e_Ra112G-wACPqTDZ2-64">
          <mxGeometry width="50" height="50" relative="1" as="geometry">
            <mxPoint x="680" y="520" as="sourcePoint" />
            <mxPoint x="730" y="470" as="targetPoint" />
          </mxGeometry>
        </mxCell>
        <mxCell id="W6e_Ra112G-wACPqTDZ2-83" value="Socket" style="edgeLabel;html=1;align=center;verticalAlign=middle;resizable=0;points=[];" vertex="1" connectable="0" parent="W6e_Ra112G-wACPqTDZ2-82">
          <mxGeometry x="-0.0183" y="-1" relative="1" as="geometry">
            <mxPoint y="-4" as="offset" />
          </mxGeometry>
        </mxCell>
        <mxCell id="W6e_Ra112G-wACPqTDZ2-84" value="Server" style="edgeLabel;html=1;align=center;verticalAlign=middle;resizable=0;points=[];" vertex="1" connectable="0" parent="W6e_Ra112G-wACPqTDZ2-82">
          <mxGeometry x="-0.7691" y="-2" relative="1" as="geometry">
            <mxPoint y="-10" as="offset" />
          </mxGeometry>
        </mxCell>
        <mxCell id="W6e_Ra112G-wACPqTDZ2-85" value="" style="endArrow=classic;startArrow=classic;html=1;rounded=0;exitX=0.5;exitY=0;exitDx=0;exitDy=0;" edge="1" parent="W6e_Ra112G-wACPqTDZ2-7" source="W6e_Ra112G-wACPqTDZ2-80" target="W6e_Ra112G-wACPqTDZ2-64">
          <mxGeometry width="50" height="50" relative="1" as="geometry">
            <mxPoint x="690" y="600" as="sourcePoint" />
            <mxPoint x="760" y="450" as="targetPoint" />
          </mxGeometry>
        </mxCell>
        <mxCell id="W6e_Ra112G-wACPqTDZ2-86" value="Socket" style="edgeLabel;html=1;align=center;verticalAlign=middle;resizable=0;points=[];" vertex="1" connectable="0" parent="W6e_Ra112G-wACPqTDZ2-85">
          <mxGeometry x="-0.0437" y="-1" relative="1" as="geometry">
            <mxPoint y="-6" as="offset" />
          </mxGeometry>
        </mxCell>
        <mxCell id="W6e_Ra112G-wACPqTDZ2-87" value="Server" style="edgeLabel;html=1;align=center;verticalAlign=middle;resizable=0;points=[];" vertex="1" connectable="0" parent="W6e_Ra112G-wACPqTDZ2-85">
          <mxGeometry x="-0.6084" y="1" relative="1" as="geometry">
            <mxPoint y="4" as="offset" />
          </mxGeometry>
        </mxCell>
        <mxCell id="W6e_Ra112G-wACPqTDZ2-88" value="" style="endArrow=classic;startArrow=classic;html=1;rounded=0;" edge="1" parent="W6e_Ra112G-wACPqTDZ2-7" source="W6e_Ra112G-wACPqTDZ2-81" target="W6e_Ra112G-wACPqTDZ2-64">
          <mxGeometry width="50" height="50" relative="1" as="geometry">
            <mxPoint x="700" y="610" as="sourcePoint" />
            <mxPoint x="755" y="464" as="targetPoint" />
          </mxGeometry>
        </mxCell>
        <mxCell id="W6e_Ra112G-wACPqTDZ2-89" value="Socket" style="edgeLabel;html=1;align=center;verticalAlign=middle;resizable=0;points=[];" vertex="1" connectable="0" parent="W6e_Ra112G-wACPqTDZ2-88">
          <mxGeometry x="-0.0708" y="1" relative="1" as="geometry">
            <mxPoint y="-9" as="offset" />
          </mxGeometry>
        </mxCell>
        <mxCell id="W6e_Ra112G-wACPqTDZ2-90" value="Server" style="edgeLabel;html=1;align=center;verticalAlign=middle;resizable=0;points=[];" vertex="1" connectable="0" parent="W6e_Ra112G-wACPqTDZ2-88">
          <mxGeometry x="-0.6524" y="1" relative="1" as="geometry">
            <mxPoint as="offset" />
          </mxGeometry>
        </mxCell>
        <mxCell id="W6e_Ra112G-wACPqTDZ2-91" value="" style="endArrow=classic;startArrow=classic;html=1;rounded=0;exitX=1;exitY=0.5;exitDx=0;exitDy=0;entryX=0;entryY=0.5;entryDx=0;entryDy=0;" edge="1" parent="W6e_Ra112G-wACPqTDZ2-7" source="W6e_Ra112G-wACPqTDZ2-18" target="W6e_Ra112G-wACPqTDZ2-65">
          <mxGeometry width="50" height="50" relative="1" as="geometry">
            <mxPoint x="600" y="347" as="sourcePoint" />
            <mxPoint x="650" y="297" as="targetPoint" />
          </mxGeometry>
        </mxCell>
        <mxCell id="W6e_Ra112G-wACPqTDZ2-92" value="cl_a" style="rounded=1;whiteSpace=wrap;html=1;" vertex="1" parent="W6e_Ra112G-wACPqTDZ2-7">
          <mxGeometry x="340" y="624" width="80" height="40" as="geometry" />
        </mxCell>
        <mxCell id="W6e_Ra112G-wACPqTDZ2-93" value="cl_b" style="rounded=1;whiteSpace=wrap;html=1;" vertex="1" parent="W6e_Ra112G-wACPqTDZ2-7">
          <mxGeometry x="435" y="624" width="80" height="40" as="geometry" />
        </mxCell>
        <mxCell id="W6e_Ra112G-wACPqTDZ2-94" value="cl_c" style="rounded=1;whiteSpace=wrap;html=1;" vertex="1" parent="W6e_Ra112G-wACPqTDZ2-7">
          <mxGeometry x="530" y="624" width="80" height="40" as="geometry" />
        </mxCell>
        <mxCell id="W6e_Ra112G-wACPqTDZ2-95" value="" style="endArrow=classic;startArrow=classic;html=1;rounded=0;exitX=0.5;exitY=0;exitDx=0;exitDy=0;entryX=0;entryY=1;entryDx=0;entryDy=0;" edge="1" parent="W6e_Ra112G-wACPqTDZ2-7" source="W6e_Ra112G-wACPqTDZ2-92" target="W6e_Ra112G-wACPqTDZ2-18">
          <mxGeometry width="50" height="50" relative="1" as="geometry">
            <mxPoint x="430" y="517" as="sourcePoint" />
            <mxPoint x="480" y="467" as="targetPoint" />
          </mxGeometry>
        </mxCell>
        <mxCell id="W6e_Ra112G-wACPqTDZ2-98" value="Socket" style="edgeLabel;html=1;align=center;verticalAlign=middle;resizable=0;points=[];" vertex="1" connectable="0" parent="W6e_Ra112G-wACPqTDZ2-95">
          <mxGeometry x="0.0222" y="-1" relative="1" as="geometry">
            <mxPoint as="offset" />
          </mxGeometry>
        </mxCell>
        <mxCell id="W6e_Ra112G-wACPqTDZ2-101" value="Server" style="edgeLabel;html=1;align=center;verticalAlign=middle;resizable=0;points=[];" vertex="1" connectable="0" parent="W6e_Ra112G-wACPqTDZ2-95">
          <mxGeometry x="0.5148" y="-1" relative="1" as="geometry">
            <mxPoint y="1" as="offset" />
          </mxGeometry>
        </mxCell>
        <mxCell id="W6e_Ra112G-wACPqTDZ2-96" value="Socket" style="endArrow=classic;startArrow=classic;html=1;rounded=0;exitX=0.5;exitY=0;exitDx=0;exitDy=0;" edge="1" parent="W6e_Ra112G-wACPqTDZ2-7" source="W6e_Ra112G-wACPqTDZ2-93" target="W6e_Ra112G-wACPqTDZ2-18">
          <mxGeometry width="50" height="50" relative="1" as="geometry">
            <mxPoint x="600" y="347" as="sourcePoint" />
            <mxPoint x="650" y="297" as="targetPoint" />
          </mxGeometry>
        </mxCell>
        <mxCell id="W6e_Ra112G-wACPqTDZ2-102" value="Server" style="edgeLabel;html=1;align=center;verticalAlign=middle;resizable=0;points=[];" vertex="1" connectable="0" parent="W6e_Ra112G-wACPqTDZ2-96">
          <mxGeometry x="0.4634" y="-1" relative="1" as="geometry">
            <mxPoint as="offset" />
          </mxGeometry>
        </mxCell>
        <mxCell id="W6e_Ra112G-wACPqTDZ2-97" value="Socket" style="endArrow=classic;startArrow=classic;html=1;rounded=0;exitX=0.5;exitY=0;exitDx=0;exitDy=0;entryX=1;entryY=1;entryDx=0;entryDy=0;" edge="1" parent="W6e_Ra112G-wACPqTDZ2-7" source="W6e_Ra112G-wACPqTDZ2-94" target="W6e_Ra112G-wACPqTDZ2-18">
          <mxGeometry width="50" height="50" relative="1" as="geometry">
            <mxPoint x="600" y="347" as="sourcePoint" />
            <mxPoint x="650" y="297" as="targetPoint" />
          </mxGeometry>
        </mxCell>
        <mxCell id="W6e_Ra112G-wACPqTDZ2-103" value="Server" style="edgeLabel;html=1;align=center;verticalAlign=middle;resizable=0;points=[];" vertex="1" connectable="0" parent="W6e_Ra112G-wACPqTDZ2-97">
          <mxGeometry x="0.4732" relative="1" as="geometry">
            <mxPoint as="offset" />
          </mxGeometry>
        </mxCell>
        <mxCell id="W6e_Ra112G-wACPqTDZ2-76" value="" style="endArrow=classic;startArrow=classic;html=1;rounded=0;entryX=1;entryY=1;entryDx=0;entryDy=0;exitX=0;exitY=0;exitDx=0;exitDy=0;" edge="1" parent="W6e_Ra112G-wACPqTDZ2-7" source="W6e_Ra112G-wACPqTDZ2-63" target="W6e_Ra112G-wACPqTDZ2-20">
          <mxGeometry width="50" height="50" relative="1" as="geometry">
            <mxPoint x="1055" y="337" as="sourcePoint" />
            <mxPoint x="1039" y="154" as="targetPoint" />
          </mxGeometry>
        </mxCell>
        <mxCell id="W6e_Ra112G-wACPqTDZ2-77" value="Socket" style="edgeLabel;html=1;align=center;verticalAlign=middle;resizable=0;points=[];" vertex="1" connectable="0" parent="W6e_Ra112G-wACPqTDZ2-76">
          <mxGeometry x="-0.0355" y="-7" relative="1" as="geometry">
            <mxPoint x="1" as="offset" />
          </mxGeometry>
        </mxCell>
        <mxCell id="W6e_Ra112G-wACPqTDZ2-78" value="Server" style="edgeLabel;html=1;align=center;verticalAlign=middle;resizable=0;points=[];" vertex="1" connectable="0" parent="W6e_Ra112G-wACPqTDZ2-76">
          <mxGeometry x="-0.7031" y="1" relative="1" as="geometry">
            <mxPoint x="15" as="offset" />
          </mxGeometry>
        </mxCell>
      </root>
    </mxGraphModel>
  </diagram>
</mxfile>
